<svg width="18" height="17" viewBox="0 0 18 17" fill="none" xmlns="http://www.w3.org/2000/svg">
<path d="M11.1708 3.14282H17.0714V15.1641C17.0714 15.6815 16.6056 16 16.1009 16H1.89286C1.3882 16 1 15.6019 1 15.0844V3.14282H6.82298" stroke="#2F3035" stroke-width="1.5" stroke-miterlimit="10"/>
<path d="M11.3853 3.14286H17.0165C17.0553 3.14286 17.0942 3.11088 17.0553 3.07889L14.9582 1H3.11323L1.01609 3.07889C0.97725 3.11088 1.01609 3.14286 1.05492 3.14286H6.68614" stroke="#2F3035" stroke-width="1.5" stroke-miterlimit="10"/>
<path d="M11.7146 3.14286L10.7829 1H7.38227L6.35742 3.14286" stroke="#2F3035" stroke-width="1.5" stroke-miterlimit="10"/>
<path d="M11.7146 3.14282V7.42854L9.10468 5.92274L6.35742 7.42854V3.14282" stroke="#2F3035" stroke-width="1.5" stroke-miterlimit="10"/>
<path d="M10.9869 11.7143H7.12229C6.67947 11.7143 6.35742 11.276 6.35742 10.7889V10.4967C6.35742 9.96102 6.71973 9.57141 7.12229 9.57141H10.9466C11.3895 9.57141 11.7115 10.0097 11.7115 10.4967V10.7889C11.7518 11.3247 11.3895 11.7143 10.9869 11.7143Z" stroke="#2F3035" stroke-width="1.5" stroke-miterlimit="10"/>
</svg>
